<svg xmlns="http://www.w3.org/2000/svg" viewBox="0 0 420 100" width="420" height="100">
  <polygon fill="#0d2249" points="44,10 76,10 92,50 76,90 44,90 28,50"/>
  <polygon fill="none" stroke="#b8902e" stroke-width="2"
           points="44,10 76,10 92,50 76,90 44,90 28,50"/>
  <circle fill="#071530" cx="60" cy="50" r="28"/>
  <circle fill="none" stroke="#b8902e" stroke-width="1.5" cx="60" cy="50" r="28"/>
  <line x1="60" y1="62" x2="60" y2="36" stroke="#b8902e" stroke-width="2" stroke-linecap="round"/>
  <path d="M60 48 Q50 38 48 24 Q57 28 60 42" fill="#d4a843"/>
  <path d="M60 48 Q70 38 72 24 Q63 28 60 42" fill="#b8902e"/>
  <ellipse cx="60" cy="33" rx="3" ry="5.5" fill="#edc96a"/>
  <text font-family="'Sarabun','Noto Sans Thai',Arial,sans-serif"
        font-size="11" font-weight="700" fill="#d4a843"
        text-anchor="middle" x="60" y="72">฿</text>
  <circle fill="#b8902e" cx="44" cy="10" r="2.5"/>
  <circle fill="#b8902e" cx="76" cy="10" r="2.5"/>
  <circle fill="#b8902e" cx="92" cy="50" r="2.5"/>
  <circle fill="#b8902e" cx="76" cy="90" r="2.5"/>
  <circle fill="#b8902e" cx="44" cy="90" r="2.5"/>
  <circle fill="#b8902e" cx="28" cy="50" r="2.5"/>
  <text font-family="'Sarabun','Noto Sans Thai',Arial,sans-serif"
        font-size="42" font-weight="700" fill="white" x="104" y="62">เงิน<tspan fill="#d4a843">งอก</tspan></text>
  <line x1="104" y1="72" x2="350" y2="72" stroke="#b8902e" stroke-width="1.5"/>
  <text font-family="'Sarabun','Noto Sans Thai',Arial,sans-serif"
        font-size="9" letter-spacing="2" fill="#4a6080"
        x="106" y="86">ความรู้การเงิน  สร้างอิสรภาพ</text>
</svg>
